<?xml version="1.0" encoding="UTF-8" standalone="no"?>
<!-- Created with Inkscape (http://www.inkscape.org/) -->

<svg
   xmlns:dc="http://purl.org/dc/elements/1.1/"
   xmlns:cc="http://creativecommons.org/ns#"
   xmlns:rdf="http://www.w3.org/1999/02/22-rdf-syntax-ns#"
   xmlns:svg="http://www.w3.org/2000/svg"
   xmlns="http://www.w3.org/2000/svg"
   xmlns:sodipodi="http://sodipodi.sourceforge.net/DTD/sodipodi-0.dtd"
   xmlns:inkscape="http://www.inkscape.org/namespaces/inkscape"
   width="600"
   height="150"
   viewBox="0 0 600.00001 150"
   id="svg4900"
   version="1.1"
   inkscape:version="0.91 r13725"
   sodipodi:docname="hdef4_long_logo.svg">
  <defs
     id="defs4902" />
  <sodipodi:namedview
     id="base"
     pagecolor="#ffffff"
     bordercolor="#666666"
     borderopacity="1.0"
     inkscape:pageopacity="0.0"
     inkscape:pageshadow="2"
     inkscape:zoom="1.4142136"
     inkscape:cx="308.38835"
     inkscape:cy="75"
     inkscape:document-units="px"
     inkscape:current-layer="layer1"
     showgrid="true"
     units="px"
     inkscape:window-width="1504"
     inkscape:window-height="927"
     inkscape:window-x="316"
     inkscape:window-y="97"
     inkscape:window-maximized="0"
     inkscape:snap-bbox="true"
     inkscape:object-paths="true"
     inkscape:snap-intersection-paths="true"
     inkscape:object-nodes="true"
     inkscape:snap-grids="false">
    <inkscape:grid
       type="xygrid"
       id="grid5448"
       units="px"
       spacingx="10"
       spacingy="10" />
  </sodipodi:namedview>
  <metadata
     id="metadata4905">
    <rdf:RDF>
      <cc:Work
         rdf:about="">
        <dc:format>image/svg+xml</dc:format>
        <dc:type
           rdf:resource="http://purl.org/dc/dcmitype/StillImage" />
        <dc:title></dc:title>
      </cc:Work>
    </rdf:RDF>
  </metadata>
  <g
     inkscape:label="Layer 1"
     inkscape:groupmode="layer"
     id="layer1"
     transform="translate(0,-902.36216)">
    <g
       style="clip-rule:nonzero"
       id="g4957"
       transform="matrix(1.25,0,0,1.25,-278.3158,695.29887)">
      <path
         transform="matrix(-0.31142842,1.1622668,-1.1622667,-0.31142846,334.84918,221.47204)"
         inkscape:transform-center-y="0.84537134"
         inkscape:transform-center-x="-0.28398553"
         d="m 33.603966,54.963179 -6.411323,3.898365 -0.170421,7.501551 -3.898364,-6.411324 -7.501552,-0.170421 6.411324,-3.898364 0.170421,-7.501551 3.898364,6.411324 z"
         inkscape:randomized="0"
         inkscape:rounded="3.1225023e-17"
         inkscape:flatsided="false"
         sodipodi:arg2="0.52359877"
         sodipodi:arg1="-0.26179939"
         sodipodi:r2="2.9785573"
         sodipodi:r1="9.307992"
         sodipodi:cy="57.372265"
         sodipodi:cx="24.613136"
         sodipodi:sides="4"
         id="path5001-4"
         style="clip-rule:nonzero;opacity:1;fill:#ffffff;fill-opacity:1;stroke:none;stroke-width:1.5;stroke-linecap:butt;stroke-linejoin:miter;stroke-miterlimit:4;stroke-dasharray:none;stroke-dashoffset:0;stroke-opacity:1"
         sodipodi:type="star" />
      <path
         sodipodi:nodetypes="cccccccc"
         inkscape:connector-curvature="0"
         id="path7371"
         d="m 314.94126,245.56817 0,0 -15.08159,25.87031 -33.79809,0.71407 -15.85247,-15.44796 -11.97455,-14.21546 -2.65753,-23.32952 25.65266,-26.55145"
         style="fill:none;stroke:#ffffff;stroke-width:1.60000002;stroke-linecap:butt;stroke-linejoin:miter;stroke-miterlimit:4;stroke-dasharray:none;stroke-opacity:1" />
      <circle
         transform="matrix(0.50000001,0.8660254,-0.8660254,0.50000001,0,0)"
         r="2.4299972"
         cy="-129.92749"
         cx="297.41843"
         id="path9330"
         style="opacity:1;fill:#ffffff;fill-opacity:1;stroke:none;stroke-width:1.02479625;stroke-linecap:butt;stroke-linejoin:miter;stroke-miterlimit:4;stroke-dasharray:none;stroke-dashoffset:0;stroke-opacity:1" />
      <circle
         transform="matrix(0.50000001,0.8660254,-0.8660254,0.50000001,0,0)"
         r="3.0764387"
         cy="-94.435921"
         cx="307.58633"
         id="path9330-6"
         style="clip-rule:nonzero;opacity:1;fill:#ffffff;fill-opacity:1;stroke:none;stroke-width:1.02479625;stroke-linecap:butt;stroke-linejoin:miter;stroke-miterlimit:4;stroke-dasharray:none;stroke-dashoffset:0;stroke-opacity:1" />
      <circle
         transform="matrix(0.50000001,0.8660254,-0.8660254,0.50000001,0,0)"
         r="2.7001333"
         cy="-85.072632"
         cx="329.11905"
         id="path9330-7"
         style="clip-rule:nonzero;opacity:1;fill:#ffffff;fill-opacity:1;stroke:none;stroke-width:1.02479625;stroke-linecap:butt;stroke-linejoin:miter;stroke-miterlimit:4;stroke-dasharray:none;stroke-dashoffset:0;stroke-opacity:1" />
      <circle
         transform="matrix(0.50000001,0.8660254,-0.8660254,0.50000001,0,0)"
         r="3.3805981"
         cy="-88.335175"
         cx="347.41727"
         id="path9330-1"
         style="clip-rule:nonzero;opacity:1;fill:#ffffff;fill-opacity:1;stroke:none;stroke-width:1.02479625;stroke-linecap:butt;stroke-linejoin:miter;stroke-miterlimit:4;stroke-dasharray:none;stroke-dashoffset:0;stroke-opacity:1" />
      <circle
         transform="matrix(0.50000001,0.8660254,-0.8660254,0.50000001,0,0)"
         r="5.5084848"
         cy="-94.339836"
         cx="368.72183"
         id="path9330-1-2"
         style="clip-rule:nonzero;opacity:1;fill:#ffffff;fill-opacity:1;stroke:none;stroke-width:1.02479625;stroke-linecap:butt;stroke-linejoin:miter;stroke-miterlimit:4;stroke-dasharray:none;stroke-dashoffset:0;stroke-opacity:1" />
      <circle
         transform="matrix(0.50000001,0.8660254,-0.8660254,0.50000001,0,0)"
         r="3.5445654"
         cy="-123.96686"
         cx="385.00247"
         id="path9330-1-2-9"
         style="clip-rule:nonzero;opacity:1;fill:#ffffff;fill-opacity:1;stroke:none;stroke-width:1.02479625;stroke-linecap:butt;stroke-linejoin:miter;stroke-miterlimit:4;stroke-dasharray:none;stroke-dashoffset:0;stroke-opacity:1" />
      <circle
         transform="matrix(0.50000001,0.8660254,-0.8660254,0.50000001,0,0)"
         r="3.0604515"
         cy="-149.96307"
         cx="370.13892"
         id="path9330-1-2-9-4"
         style="clip-rule:nonzero;opacity:1;fill:#ffffff;fill-opacity:1;stroke:none;stroke-width:1.02479625;stroke-linecap:butt;stroke-linejoin:miter;stroke-miterlimit:4;stroke-dasharray:none;stroke-dashoffset:0;stroke-opacity:1" />
    </g>
    <g
       style="font-style:normal;font-weight:normal;font-size:17.67206001px;line-height:135.00000238%;font-family:sans-serif;letter-spacing:0px;word-spacing:0px;clip-rule:nonzero;fill:#ffffff;fill-opacity:1;stroke:none;stroke-width:1px;stroke-linecap:butt;stroke-linejoin:miter;stroke-opacity:1"
       id="text9422">
      <path
         d="m 82.494897,956.43274 5.33,0 0,-22.5225 -5.33,0 0,8.71 -6.76,0 0,-8.71 -5.33,0 0,22.5225 5.33,0 0,-9.6525 6.76,0 0,9.6525 z"
         style="font-style:normal;font-variant:normal;font-weight:bold;font-stretch:normal;font-size:32.5px;line-height:87.99999952%;font-family:'Fira Sans';-inkscape-font-specification:'Fira Sans Bold';fill:#ffffff"
         id="path6571" />
      <path
         d="m 109.40693,933.91024 -5.6225,0 -4.160002,9.9125 -4.16,-9.9125 -5.8175,0 7.215,14.105 0,8.4175 5.330002,0 0,-8.45 7.215,-14.0725 z"
         style="font-style:normal;font-variant:normal;font-weight:bold;font-stretch:normal;font-size:32.5px;line-height:87.99999952%;font-family:'Fira Sans';-inkscape-font-specification:'Fira Sans Bold';fill:#ffffff"
         id="path6573" />
      <path
         d="m 117.5563,933.91024 -6.2725,0 0,22.5225 6.76,0 c 5.7525,0 11.2125,-2.3075 11.2125,-11.375 0,-9.295 -5.6875,-11.1475 -11.7,-11.1475 z m 0.7475,3.8675 c 3.12,0 5.4275,1.235 5.4275,7.28 0,5.98 -2.145,7.5075 -5.3625,7.5075 l -1.755,0 0,-14.7875 1.69,0 z"
         style="font-style:normal;font-variant:normal;font-weight:bold;font-stretch:normal;font-size:32.5px;line-height:87.99999952%;font-family:'Fira Sans';-inkscape-font-specification:'Fira Sans Bold';fill:#ffffff"
         id="path6575" />
      <path
         d="m 144.4465,956.43274 6.0125,0 -5.72,-9.5875 c 2.925,-1.3325 4.3225,-3.12 4.3225,-6.0775 0,-4.68 -3.1525,-6.8575 -9.2625,-6.8575 l -7.3775,0 0,22.5225 5.33,0 0,-8.6125 2.08,0 4.615,8.6125 z m -6.695,-18.785 1.9175,0 c 2.6325,0 3.9,0.9425 3.9,3.12 0,2.3725 -1.235,3.38 -3.575,3.38 l -2.2425,0 0,-6.5 z"
         style="font-style:normal;font-variant:normal;font-weight:bold;font-stretch:normal;font-size:32.5px;line-height:87.99999952%;font-family:'Fira Sans';-inkscape-font-specification:'Fira Sans Bold';fill:#ffffff"
         id="path6577" />
      <path
         d="m 161.07228,933.35774 c -6.3375,0 -10.14,4.4525 -10.14,11.7975 0,7.5075 3.8025,11.83 10.14,11.83 6.37,0 10.1725,-4.4525 10.1725,-11.83 0,-7.5075 -3.8025,-11.7975 -10.1725,-11.7975 z m 0,3.9 c 3.0225,0 4.5825,2.21 4.5825,7.8975 0,5.72 -1.5275,7.93 -4.5825,7.93 -2.925,0 -4.55,-2.21 -4.55,-7.93 0,-5.6875 1.56,-7.8975 4.55,-7.8975 z"
         style="font-style:normal;font-variant:normal;font-weight:bold;font-stretch:normal;font-size:32.5px;line-height:87.99999952%;font-family:'Fira Sans';-inkscape-font-specification:'Fira Sans Bold';fill:#ffffff"
         id="path6579" />
      <path
         d="m 184.19298,933.35774 c -6.045,0 -10.79,4.16 -10.79,11.7975 0,7.7025 3.445,11.83 10.335,11.83 2.8275,0 5.7525,-0.8775 8.0925,-2.3725 l 0,-11.1475 -8.6125,0 0.52,3.77 2.925,0 0,5.1025 c -0.9425,0.52 -1.95,0.7475 -3.055,0.7475 -3.12,0 -4.68,-2.015 -4.68,-7.93 0,-5.59 2.34,-7.93 5.4925,-7.93 1.82,0 3.055,0.5525 4.5825,1.7225 l 2.6975,-2.8275 c -1.8525,-1.625 -4.225,-2.7625 -7.5075,-2.7625 z"
         style="font-style:normal;font-variant:normal;font-weight:bold;font-stretch:normal;font-size:32.5px;line-height:87.99999952%;font-family:'Fira Sans';-inkscape-font-specification:'Fira Sans Bold';fill:#ffffff"
         id="path6581" />
      <path
         d="m 209.20275,933.91024 -13.8125,0 0,22.5225 13.8125,0 0,-3.835 -8.4825,0 0,-5.7525 6.9225,0 0,-3.7375 -6.9225,0 0,-5.395 7.93,0 0.5525,-3.8025 z"
         style="font-style:normal;font-variant:normal;font-weight:bold;font-stretch:normal;font-size:32.5px;line-height:87.99999952%;font-family:'Fira Sans';-inkscape-font-specification:'Fira Sans Bold';fill:#ffffff"
         id="path6583" />
      <path
         d="m 229.82044,933.91024 -4.7775,0 0,9.1 c 0,3.6075 0.4225,6.565 0.715,8.385 l -6.6625,-17.485 -6.63,0 0,22.5225 4.745,0 0,-8.255 c 0,-4.16 -0.4225,-7.15 -0.6825,-9.1975 l 6.5,17.4525 6.7925,0 0,-22.5225 z"
         style="font-style:normal;font-variant:normal;font-weight:bold;font-stretch:normal;font-size:32.5px;line-height:87.99999952%;font-family:'Fira Sans';-inkscape-font-specification:'Fira Sans Bold';fill:#ffffff"
         id="path6585" />
      <path
         d="m 247.93716,933.91024 -6.2725,0 0,22.5225 6.76,0 c 5.7525,0 11.2125,-2.3075 11.2125,-11.375 0,-9.295 -5.6875,-11.1475 -11.7,-11.1475 z m 0.7475,3.8675 c 3.12,0 5.4275,1.235 5.4275,7.28 0,5.98 -2.145,7.5075 -5.3625,7.5075 l -1.755,0 0,-14.7875 1.69,0 z"
         style="font-style:normal;font-variant:normal;font-weight:bold;font-stretch:normal;font-size:32.5px;line-height:87.99999952%;font-family:'Fira Sans';-inkscape-font-specification:'Fira Sans Bold';fill:#ffffff"
         id="path6587" />
      <path
         d="m 276.61486,933.91024 -13.8125,0 0,22.5225 13.8125,0 0,-3.835 -8.4825,0 0,-5.7525 6.9225,0 0,-3.7375 -6.9225,0 0,-5.395 7.93,0 0.5525,-3.8025 z"
         style="font-style:normal;font-variant:normal;font-weight:bold;font-stretch:normal;font-size:32.5px;line-height:87.99999952%;font-family:'Fira Sans';-inkscape-font-specification:'Fira Sans Bold';fill:#ffffff"
         id="path6589" />
      <path
         d="m 279.87755,956.43274 5.33,0 0,-8.9375 6.565,0 0,-3.8025 -6.565,0 0,-5.98 7.54,0 0.5525,-3.8025 -13.4225,0 0,22.5225 z"
         style="font-style:normal;font-variant:normal;font-weight:bold;font-stretch:normal;font-size:32.5px;line-height:87.99999952%;font-family:'Fira Sans';-inkscape-font-specification:'Fira Sans Bold';fill:#ffffff"
         id="path6591" />
      <path
         d="m 301.01322,933.91024 -5.33,0 0,22.5225 5.33,0 0,-22.5225 z"
         style="font-style:normal;font-variant:normal;font-weight:bold;font-stretch:normal;font-size:32.5px;line-height:87.99999952%;font-family:'Fira Sans';-inkscape-font-specification:'Fira Sans Bold';fill:#ffffff"
         id="path6593" />
      <path
         d="m 314.4022,933.35774 c -5.85,0 -10.2375,4.225 -10.2375,11.765 0,7.7025 4.1275,11.8625 10.3025,11.8625 3.12,0 5.5575,-1.3975 7.0525,-2.8925 l -2.3725,-3.055 c -1.3325,1.0075 -2.6325,1.82 -4.42,1.82 -2.99,0 -4.9725,-2.3075 -4.9725,-7.735 0,-5.525 2.015,-7.8325 4.9075,-7.8325 1.5275,0 2.795,0.585 4.0625,1.56 l 2.535,-3.0225 c -1.885,-1.5925 -3.9325,-2.47 -6.8575,-2.47 z"
         style="font-style:normal;font-variant:normal;font-weight:bold;font-stretch:normal;font-size:32.5px;line-height:87.99999952%;font-family:'Fira Sans';-inkscape-font-specification:'Fira Sans Bold';fill:#ffffff"
         id="path6595" />
      <path
         d="m 329.19681,933.91024 -5.33,0 0,22.5225 5.33,0 0,-22.5225 z"
         style="font-style:normal;font-variant:normal;font-weight:bold;font-stretch:normal;font-size:32.5px;line-height:87.99999952%;font-family:'Fira Sans';-inkscape-font-specification:'Fira Sans Bold';fill:#ffffff"
         id="path6597" />
      <path
         d="m 347.20079,933.91024 -13.8125,0 0,22.5225 13.8125,0 0,-3.835 -8.4825,0 0,-5.7525 6.9225,0 0,-3.7375 -6.9225,0 0,-5.395 7.93,0 0.5525,-3.8025 z"
         style="font-style:normal;font-variant:normal;font-weight:bold;font-stretch:normal;font-size:32.5px;line-height:87.99999952%;font-family:'Fira Sans';-inkscape-font-specification:'Fira Sans Bold';fill:#ffffff"
         id="path6599" />
      <path
         d="m 367.81849,933.91024 -4.7775,0 0,9.1 c 0,3.6075 0.4225,6.565 0.715,8.385 l -6.6625,-17.485 -6.63,0 0,22.5225 4.745,0 0,-8.255 c 0,-4.16 -0.4225,-7.15 -0.6825,-9.1975 l 6.5,17.4525 6.7925,0 0,-22.5225 z"
         style="font-style:normal;font-variant:normal;font-weight:bold;font-stretch:normal;font-size:32.5px;line-height:87.99999952%;font-family:'Fira Sans';-inkscape-font-specification:'Fira Sans Bold';fill:#ffffff"
         id="path6601" />
      <path
         d="m 387.38704,933.91024 -17.225,0 0,4.095 5.8175,0 0,18.4275 5.33,0 0,-18.4275 5.5575,0 0.52,-4.095 z"
         style="font-style:normal;font-variant:normal;font-weight:bold;font-stretch:normal;font-size:32.5px;line-height:87.99999952%;font-family:'Fira Sans';-inkscape-font-specification:'Fira Sans Bold';fill:#ffffff"
         id="path6603" />
      <path
         d="m 404.42974,933.35774 c -4.68,0 -8.125,2.535 -8.125,6.5 0,3.3475 1.8525,5.4275 6.89,6.9875 3.2825,1.0075 4.1275,1.755 4.1275,3.4125 0,1.7225 -1.365,2.7625 -3.575,2.7625 -2.2425,0 -4.03,-0.8125 -5.6875,-2.21 l -2.6975,2.9575 c 1.8525,1.7875 4.6475,3.2175 8.5475,3.2175 5.6225,0 8.9375,-2.925 8.9375,-7.1175 0,-4.16 -2.4375,-5.915 -6.695,-7.28 -3.51,-1.105 -4.355,-1.69 -4.355,-3.12 0,-1.43 1.17,-2.21 3.0225,-2.21 1.82,0 3.38,0.6175 4.94,1.885 l 2.47,-2.8925 c -1.9825,-1.885 -4.355,-2.8925 -7.8,-2.8925 z"
         style="font-style:normal;font-variant:normal;font-weight:bold;font-stretch:normal;font-size:32.5px;line-height:87.99999952%;font-family:'Fira Sans';-inkscape-font-specification:'Fira Sans Bold';fill:#ffffff"
         id="path6605" />
      <path
         d="m 430.48763,933.91024 -17.225,0 0,4.095 5.8175,0 0,18.4275 5.33,0 0,-18.4275 5.5575,0 0.52,-4.095 z"
         style="font-style:normal;font-variant:normal;font-weight:bold;font-stretch:normal;font-size:32.5px;line-height:87.99999952%;font-family:'Fira Sans';-inkscape-font-specification:'Fira Sans Bold';fill:#ffffff"
         id="path6607" />
      <path
         d="m 442.81427,956.43274 5.655,0 -6.7925,-22.5225 -6.4675,0 -6.7925,22.5225 5.525,0 1.1375,-4.8425 6.565,0 1.17,4.8425 z m -6.825,-8.71 2.3725,-9.945 2.3725,9.945 -4.745,0 z"
         style="font-style:normal;font-variant:normal;font-weight:bold;font-stretch:normal;font-size:32.5px;line-height:87.99999952%;font-family:'Fira Sans';-inkscape-font-specification:'Fira Sans Bold';fill:#ffffff"
         id="path6609" />
      <path
         d="m 462.14669,956.43274 6.0125,0 -5.72,-9.5875 c 2.925,-1.3325 4.3225,-3.12 4.3225,-6.0775 0,-4.68 -3.1525,-6.8575 -9.2625,-6.8575 l -7.3775,0 0,22.5225 5.33,0 0,-8.6125 2.08,0 4.615,8.6125 z m -6.695,-18.785 1.9175,0 c 2.6325,0 3.9,0.9425 3.9,3.12 0,2.3725 -1.235,3.38 -3.575,3.38 l -2.2425,0 0,-6.5 z"
         style="font-style:normal;font-variant:normal;font-weight:bold;font-stretch:normal;font-size:32.5px;line-height:87.99999952%;font-family:'Fira Sans';-inkscape-font-specification:'Fira Sans Bold';fill:#ffffff"
         id="path6611" />
      <path
         d="m 477.04693,933.35774 c -4.68,0 -8.125,2.535 -8.125,6.5 0,3.3475 1.8525,5.4275 6.89,6.9875 3.2825,1.0075 4.1275,1.755 4.1275,3.4125 0,1.7225 -1.365,2.7625 -3.575,2.7625 -2.2425,0 -4.03,-0.8125 -5.6875,-2.21 l -2.6975,2.9575 c 1.8525,1.7875 4.6475,3.2175 8.5475,3.2175 5.6225,0 8.9375,-2.925 8.9375,-7.1175 0,-4.16 -2.4375,-5.915 -6.695,-7.28 -3.51,-1.105 -4.355,-1.69 -4.355,-3.12 0,-1.43 1.17,-2.21 3.0225,-2.21 1.82,0 3.38,0.6175 4.94,1.885 l 2.47,-2.8925 c -1.9825,-1.885 -4.355,-2.8925 -7.8,-2.8925 z"
         style="font-style:normal;font-variant:normal;font-weight:bold;font-stretch:normal;font-size:32.5px;line-height:87.99999952%;font-family:'Fira Sans';-inkscape-font-specification:'Fira Sans Bold';fill:#ffffff"
         id="path6613" />
      <path
         d="m 501.98306,934.17024 c -3.0225,0 -5.33,1.3 -7.085,3.575 l 2.535,2.015 c 1.365,-1.5925 2.5025,-2.3075 4.225,-2.3075 1.885,0 3.1525,1.17 3.1525,3.185 0,3.0875 -1.82,5.135 -9.295,12.74 l 0,3.055 13.6175,0 0.455,-3.2825 -9.36,0 c 6.76,-6.435 8.8725,-9.1325 8.8725,-12.8375 0,-3.4125 -2.6,-6.1425 -7.1175,-6.1425 z"
         style="font-style:normal;font-variant:normal;font-weight:500;font-stretch:normal;font-family:'Fira Sans';-inkscape-font-specification:'Fira Sans Medium'"
         id="path6615" />
      <path
         d="m 520.20947,934.17024 c -5.135,0 -7.8325,4.0625 -7.8325,11.3425 0,7.3125 2.6975,11.4075 7.8325,11.4075 5.1675,0 7.8325,-4.095 7.8325,-11.4075 0,-7.28 -2.665,-11.3425 -7.8325,-11.3425 z m 0,3.1525 c 2.405,0 3.5425,2.0475 3.5425,8.19 0,6.175 -1.1375,8.255 -3.5425,8.255 -2.405,0 -3.5425,-2.145 -3.5425,-8.255 0,-6.045 1.1375,-8.19 3.5425,-8.19 z"
         style="font-style:normal;font-variant:normal;font-weight:500;font-stretch:normal;font-family:'Fira Sans';-inkscape-font-specification:'Fira Sans Medium'"
         id="path6617" />
      <path
         d="m 540.35236,934.56024 -3.6725,0 -7.1175,4.355 1.82,2.795 4.875,-2.9575 0,17.68 4.095,0 0,-21.8725 z"
         style="font-style:normal;font-variant:normal;font-weight:500;font-stretch:normal;font-family:'Fira Sans';-inkscape-font-specification:'Fira Sans Medium'"
         id="path6619" />
      <path
         d="m 556.25044,944.70024 c 2.47,-1.2675 3.6075,-2.925 3.6075,-4.94 0,-3.64 -3.2825,-5.59 -7.15,-5.59 -3.9,0 -7.15,2.1775 -7.15,5.7525 0,2.145 0.9425,3.9 3.2825,5.1675 -2.6,1.105 -4.16,2.86 -4.16,5.525 0,3.5425 3.0225,6.305 7.93,6.305 4.9725,0 8.125,-2.795 8.125,-6.37 0,-2.6 -1.495,-4.5175 -4.485,-5.85 z m -3.5425,-7.605 c 2.0475,0 3.12,1.1375 3.12,2.86 0,1.56 -0.6175,2.6325 -2.34,3.705 l -0.6175,-0.2275 c -2.1125,-0.78 -3.2825,-1.5925 -3.2825,-3.445 0,-1.9175 1.235,-2.8925 3.12,-2.8925 z m 0,16.7375 c -2.34,0 -3.835,-1.2675 -3.835,-3.3475 0,-1.9825 0.8775,-3.38 2.6325,-4.3225 l 1.0075,0.3575 c 2.925,1.0725 3.9975,1.9825 3.9975,4.03 0,1.885 -1.365,3.2825 -3.8025,3.2825 z"
         style="font-style:normal;font-variant:normal;font-weight:500;font-stretch:normal;font-family:'Fira Sans';-inkscape-font-specification:'Fira Sans Medium'"
         id="path6621" />
      <path
         d="m 83.599897,985.03274 2.99,0 -7.215,-22.36 -3.575,0 -7.2475,22.36 2.86,0 1.755,-5.72 8.71,0 1.7225,5.72 z m -9.75,-8.0275 3.6725,-11.9925 3.64,11.9925 -7.3125,0 z"
         style="font-style:normal;font-variant:normal;font-weight:normal;font-stretch:normal;font-size:32.5px;line-height:87.99999952%;font-family:'Fira Sans';-inkscape-font-specification:'Fira Sans';fill:#ffffff"
         id="path6623" />
      <path
         d="m 102.13505,985.03274 3.3475,0 -6.044997,-10.1075 c 3.184997,-0.9425 4.874997,-2.795 4.874997,-5.98 0,-4.1275 -2.86,-6.2725 -8.384997,-6.2725 l -5.7525,0 0,22.36 2.795,0 0,-9.62 3.705,0 5.459997,9.62 z m -9.164997,-11.7975 0,-8.3525 2.925,0 c 3.8025,0 5.427497,1.235 5.427497,4.0625 0,3.0875 -1.852497,4.29 -5.069997,4.29 l -3.2825,0 z"
         style="font-style:normal;font-variant:normal;font-weight:normal;font-stretch:normal;font-size:32.5px;line-height:87.99999952%;font-family:'Fira Sans';-inkscape-font-specification:'Fira Sans';fill:#ffffff"
         id="path6625" />
      <path
         d="m 127.60083,962.67274 -3.835,0 -4.68,16.5425 -4.9075,-16.5425 -3.835,0 -1.885,22.36 2.665,0 0.78,-10.075 c 0.2925,-3.315 0.4875,-6.9225 0.52,-9.4575 l 5.265,16.965 2.6325,0 5.0375,-16.9325 c 0.0325,1.885 0.2925,5.72 0.6175,9.2625 l 0.845,10.2375 2.73,0 -1.95,-22.36 z"
         style="font-style:normal;font-variant:normal;font-weight:normal;font-stretch:normal;font-size:32.5px;line-height:87.99999952%;font-family:'Fira Sans';-inkscape-font-specification:'Fira Sans';fill:#ffffff"
         id="path6627" />
      <path
         d="m 146.88603,985.03274 2.99,0 -7.215,-22.36 -3.575,0 -7.2475,22.36 2.86,0 1.755,-5.72 8.71,0 1.7225,5.72 z m -9.75,-8.0275 3.6725,-11.9925 3.64,11.9925 -7.3125,0 z"
         style="font-style:normal;font-variant:normal;font-weight:normal;font-stretch:normal;font-size:32.5px;line-height:87.99999952%;font-family:'Fira Sans';-inkscape-font-specification:'Fira Sans';fill:#ffffff"
         id="path6629" />
      <path
         d="m 161.2688,962.28274 c -5.07,0 -9.5875,3.965 -9.5875,11.5375 0,7.735 3.6075,11.6025 9.3275,11.6025 2.7625,0 5.07,-0.7475 7.15,-1.95 l 0,-10.7575 -7.1825,0 0.325,2.3075 4.0625,0 0,7.02 c -1.3,0.715 -2.795,1.04 -4.355,1.04 -4.03,0 -6.3375,-2.73 -6.3375,-9.2625 0,-6.695 3.315,-9.1975 6.5975,-9.1975 2.015,0 3.38,0.5525 4.94,1.82 l 1.6575,-1.755 c -1.885,-1.56 -3.705,-2.405 -6.5975,-2.405 z"
         style="font-style:normal;font-variant:normal;font-weight:normal;font-stretch:normal;font-size:32.5px;line-height:87.99999952%;font-family:'Fira Sans';-inkscape-font-specification:'Fira Sans';fill:#ffffff"
         id="path6631" />
      <path
         d="m 186.09576,985.03274 2.8275,0 0,-22.36 -2.8275,0 0,9.425 -9.7175,0 0,-9.425 -2.795,0 0,22.36 2.795,0 0,-10.595 9.7175,0 0,10.595 z"
         style="font-style:normal;font-variant:normal;font-weight:normal;font-stretch:normal;font-size:32.5px;line-height:87.99999952%;font-family:'Fira Sans';-inkscape-font-specification:'Fira Sans';fill:#ffffff"
         id="path6633" />
    </g>
  </g>
</svg>
